<?xml version="1.0" encoding="UTF-8" standalone="no"?>
<!-- Created with Inkscape (http://www.inkscape.org/) -->

<svg
   width="358.91794"
   height="50.613297"
   viewBox="0 0 94.963704 13.391435"
   version="1.1"
   id="svg5"
   xml:space="preserve"
   inkscape:version="1.2.1 (9c6d41e410, 2022-07-14)"
   sodipodi:docname="Logo_w_Icon_Black_noBG.svg"
   xmlns:inkscape="http://www.inkscape.org/namespaces/inkscape"
   xmlns:sodipodi="http://sodipodi.sourceforge.net/DTD/sodipodi-0.dtd"
   xmlns="http://www.w3.org/2000/svg"
   xmlns:svg="http://www.w3.org/2000/svg"><sodipodi:namedview
     id="namedview7"
     pagecolor="#ffffff"
     bordercolor="#cccccc"
     borderopacity="1"
     inkscape:showpageshadow="0"
     inkscape:pageopacity="1"
     inkscape:pagecheckerboard="0"
     inkscape:deskcolor="#d1d1d1"
     inkscape:document-units="px"
     showgrid="false"
     inkscape:lockguides="true"
     showguides="true"
     inkscape:zoom="11.313708"
     inkscape:cx="39.818951"
     inkscape:cy="26.78167"
     inkscape:window-width="1920"
     inkscape:window-height="1017"
     inkscape:window-x="1912"
     inkscape:window-y="117"
     inkscape:window-maximized="1"
     inkscape:current-layer="layer1" /><defs
     id="defs2" /><g
     inkscape:label="Layer 1"
     inkscape:groupmode="layer"
     id="layer1"
     transform="translate(-4.6307245,-2.3001155)"><g
       aria-label="Kasper Juul"
       id="text236"
       style="font-size:14.1111px;font-family:MuseoModerno;-inkscape-font-specification:'MuseoModerno, @wght=700';font-variation-settings:'wght' 700;stroke:#000000;stroke-width:0;stroke-linecap:square;fill:#17171c;fill-opacity:1"><path
         d="M 21.814036,12.601219 V 2.723449 H 24.1847 v 3.9934414 h 1.636888 q 0.409222,0 0.747888,-0.1693332 Q 26.922254,6.378224 27.119809,6.0395576 27.317365,5.7008912 27.317365,5.249336 V 2.723449 h 2.370665 v 2.5399981 q 0,0.9454437 -0.451556,1.693332 -0.451555,0.7478883 -1.185332,1.1994435 l 1.072444,2.2577764 q 0.04233,0.112888 0.141111,0.169333 0.112888,0.05644 0.239888,0.05644 h 0.889 v 1.961443 h -1.368777 q -0.776111,0 -1.255888,-0.296333 -0.479777,-0.296333 -0.733777,-0.818444 L 25.694588,8.6924444 q -0.112889,0 -0.211666,0 -0.09878,0 -0.211667,0 H 24.1847 v 3.9087746 z"
         id="path450"
         style="fill:#17171c;fill-opacity:1" /><path
         d="m 34.231804,12.770552 q -0.959555,0 -1.693332,-0.493888 -0.733777,-0.493889 -1.142999,-1.326444 -0.409222,-0.846666 -0.409222,-1.9049981 0,-1.1006658 0.479777,-1.9614429 0.479778,-0.8748882 1.354666,-1.3828878 0.888999,-0.5079996 2.088443,-0.5079996 1.213554,0 2.06022,0.5079996 0.860778,0.4938885 1.312333,1.3687767 0.465666,0.8607771 0.465666,1.9332207 v 3.5983304 h -2.144887 v -1.15711 h -0.05644 q -0.197555,0.381 -0.507999,0.691444 -0.310444,0.296333 -0.762,0.465666 -0.437444,0.169333 -1.044221,0.169333 z m 0.649111,-1.890887 q 0.493888,0 0.860777,-0.239889 0.380999,-0.254 0.578555,-0.6914437 0.197555,-0.4374441 0.197555,-0.9736659 0,-0.5221107 -0.197555,-0.9454437 -0.197556,-0.423333 -0.578555,-0.6632217 -0.366889,-0.2539998 -0.860777,-0.2539998 -0.508,0 -0.889,0.2539998 -0.380999,0.2398887 -0.578555,0.6632217 -0.197555,0.423333 -0.197555,0.9454437 0,0.5362218 0.197555,0.9736659 0.197556,0.4374437 0.578555,0.6914437 0.381,0.239889 0.889,0.239889 z"
         id="path452"
         style="fill:#17171c;fill-opacity:1" /><path
         d="m 40.384256,12.601219 v -1.735665 h 3.485441 q 0.141111,0 0.254,-0.05645 0.112889,-0.07055 0.183444,-0.183444 0.07056,-0.112889 0.07056,-0.239889 0,-0.141111 -0.07056,-0.253999 -0.07055,-0.112889 -0.183444,-0.1693336 -0.112889,-0.070555 -0.254,-0.070555 h -1.269999 q -0.705555,0 -1.28411,-0.2257776 -0.564444,-0.2398887 -0.90311,-0.7337772 -0.324556,-0.5079996 -0.324556,-1.3123323 0,-0.6208884 0.296334,-1.128888 Q 40.6947,5.9831132 41.21681,5.672669 41.753032,5.3622248 42.388032,5.3622248 h 3.485441 v 1.7497764 h -3.146775 q -0.197555,0 -0.338666,0.1269999 -0.127,0.1269999 -0.127,0.3104442 0,0.1975554 0.127,0.3386664 0.141111,0.1269999 0.338666,0.1269999 h 1.241777 q 0.790222,0 1.354666,0.2398887 0.578555,0.2257776 0.888999,0.7337772 0.324555,0.5079996 0.324555,1.3123325 0,0.634999 -0.324555,1.15711 -0.310444,0.522111 -0.846666,0.832555 -0.522111,0.310444 -1.185333,0.310444 z"
         id="path454"
         style="fill:#17171c;fill-opacity:1" /><path
         d="m 51.673144,5.1928916 q 0.917221,0 1.622776,0.2963331 0.719667,0.282222 1.213555,0.8184438 0.508,0.5221107 0.776111,1.2417768 0.26811,0.705555 0.26811,1.5663321 0,1.0724436 -0.451555,1.9049986 -0.437444,0.818444 -1.213554,1.28411 -0.776111,0.465666 -1.806221,0.465666 -0.437444,0 -0.832555,-0.112888 -0.381,-0.112889 -0.705555,-0.324556 -0.310444,-0.211666 -0.522111,-0.52211 h -0.04233 v 3.85233 H 47.792591 V 9.1157774 q 0,-1.1994435 0.479778,-2.0743317 0.479777,-0.8748882 1.354665,-1.3546656 0.874889,-0.4938885 2.04611,-0.4938885 z m 0,1.8908874 q -0.508,0 -0.888999,0.2539998 -0.366889,0.2398887 -0.564444,0.6773328 -0.197556,0.423333 -0.197556,0.9595548 0,0.5362218 0.197556,0.9595548 0.197555,0.4233328 0.564444,0.6773328 0.380999,0.239889 0.888999,0.239889 0.508,0 0.874888,-0.239889 0.366889,-0.254 0.564444,-0.6773328 0.211667,-0.423333 0.211667,-0.9595548 0,-0.5362218 -0.211667,-0.9595548 Q 52.914921,7.5776675 52.548032,7.3377788 52.181144,7.083779 51.673144,7.083779 Z"
         id="path456"
         style="fill:#17171c;fill-opacity:1" /><path
         d="m 60.6337,12.601219 q -1.227665,0 -2.158998,-0.451555 -0.931333,-0.465666 -1.453443,-1.269999 -0.508,-0.818444 -0.508,-1.8908875 0,-1.1853324 0.493889,-2.0319984 0.493888,-0.846666 1.312332,-1.2982212 0.832555,-0.4656663 1.834443,-0.4656663 1.142999,0 1.904998,0.4797774 0.776111,0.4797774 1.171222,1.3123323 0.395111,0.8184438 0.395111,1.8767763 0,0.1834443 -0.02822,0.4374441 -0.01411,0.2398887 -0.04233,0.3809997 h -4.74133 q 0.08467,0.3668886 0.324556,0.6208886 0.239888,0.254 0.606777,0.381 0.366889,0.112888 0.818444,0.112888 h 2.215442 v 1.806221 z M 58.756924,8.3114447 h 2.751664 Q 61.480366,8.0856671 61.423922,7.8740006 61.367477,7.6623341 61.240478,7.507112 61.127589,7.3377788 60.972367,7.22489 60.817145,7.0978901 60.605478,7.0273346 q -0.197555,-0.070555 -0.451555,-0.070555 -0.324555,0 -0.578555,0.1128888 -0.254,0.1128888 -0.423333,0.3104442 -0.169333,0.1834443 -0.268111,0.4374441 -0.08467,0.2398887 -0.127,0.493888 z"
         id="path458"
         style="fill:#17171c;fill-opacity:1" /><path
         d="M 64.838805,12.601219 V 7.4930009 q 0,-0.987777 0.564444,-1.552221 0.564444,-0.564444 1.566332,-0.564444 h 2.102554 v 1.7779986 h -1.566333 q -0.197555,0 -0.338666,0.141111 -0.141111,0.1269999 -0.141111,0.3386664 v 4.9671071 z"
         id="path460"
         style="fill:#17171c;fill-opacity:1" /><path
         d="m 75.478561,15.69155 q -0.860777,0 -1.453443,-0.324555 -0.578555,-0.324555 -0.874888,-0.888999 -0.296333,-0.564445 -0.296333,-1.284111 0,-0.719666 0.282222,-1.523998 0.282222,-0.818444 0.931332,-1.608666 0.663222,-0.7902215 1.777999,-1.4675543 V 4.6990031 H 73.884007 V 2.723449 h 4.205108 v 9.990659 q 0,0.888999 -0.282222,1.552221 -0.282222,0.677333 -0.860777,1.044221 -0.578555,0.381 -1.467555,0.381 z m -0.127,-2.031998 q 0.169334,0 0.296333,-0.09878 0.127,-0.09878 0.183445,-0.282222 0.07055,-0.169333 0.07055,-0.409222 V 10.71033 q -0.395111,0.324555 -0.64911,0.677333 -0.239889,0.338666 -0.352778,0.705555 -0.112889,0.366888 -0.112889,0.804332 0,0.366889 0.169334,0.564444 0.169333,0.197556 0.39511,0.197556 z"
         id="path462"
         style="fill:#17171c;fill-opacity:1" /><path
         d="m 83.380776,12.770552 q -1.114777,0 -1.933221,-0.423333 Q 80.643222,11.909775 80.205778,11.175998 79.768334,10.42811 79.768334,9.5249993 V 5.3622248 h 2.18722 v 4.1063301 q 0,0.3809997 0.183445,0.7055551 0.183444,0.310444 0.493888,0.508 0.324556,0.183444 0.733777,0.183444 0.395111,0 0.705556,-0.183444 0.324555,-0.197556 0.507999,-0.508 0.183444,-0.3245554 0.183444,-0.7055551 V 5.3622248 h 2.187221 v 4.1627745 q 0,0.9031107 -0.423333,1.6509987 -0.423333,0.733777 -1.227666,1.171221 -0.790221,0.423333 -1.919109,0.423333 z"
         id="path464"
         style="fill:#17171c;fill-opacity:1" /><path
         d="m 92.200215,12.770552 q -1.114777,0 -1.933221,-0.423333 Q 89.462661,11.909775 89.025217,11.175998 88.587773,10.42811 88.587773,9.5249993 V 5.3622248 h 2.18722 v 4.1063301 q 0,0.3809997 0.183445,0.7055551 0.183444,0.310444 0.493888,0.508 0.324556,0.183444 0.733777,0.183444 0.395111,0 0.705555,-0.183444 0.324556,-0.197556 0.508,-0.508 0.183444,-0.3245554 0.183444,-0.7055551 V 5.3622248 h 2.187221 v 4.1627745 q 0,0.9031107 -0.423333,1.6509987 -0.423333,0.733777 -1.227666,1.171221 -0.790221,0.423333 -1.919109,0.423333 z"
         id="path466"
         style="fill:#17171c;fill-opacity:1" /><path
         d="M 97.407208,12.601219 V 2.300116 h 2.187221 v 10.301103 z"
         id="path468"
         style="fill:#17171c;fill-opacity:1" /></g><path
       id="rect448"
       style="font-variation-settings:'wght' 700;stroke:#000000;stroke-width:0;stroke-linecap:square;fill:#17171c;fill-opacity:1"
       d="M 7.0114583,2.723449 4.6307251,6.8730665 7.0114583,11.022684 H 9.6180175 L 12.535153,2.723449 Z M 7.7307942,3.8820346 H 9.0619791 L 7.3587239,6.8730665 9.0619791,9.8640984 H 7.7307942 L 6.027539,6.8730665 Z" /><path
       id="path6327"
       style="font-variation-settings:'wght' 700;stroke:#000000;stroke-width:0;stroke-linecap:square;fill:#17171c;fill-opacity:1"
       d="M 15.89257,12.601219 18.273303,8.4516018 15.89257,4.3019843 H 13.286011 L 10.368876,12.601219 Z M 15.173234,11.442634 H 13.842049 L 15.545305,8.4516018 13.842049,5.4605699 h 1.331185 l 1.703255,2.9910319 z" /><text
       xml:space="preserve"
       style="font-style:normal;font-variant:normal;font-weight:normal;font-stretch:normal;font-size:14.1111px;font-family:MuseoModerno;-inkscape-font-specification:'MuseoModerno, @wght=700';font-variant-ligatures:normal;font-variant-caps:normal;font-variant-numeric:normal;font-variant-east-asian:normal;font-variation-settings:'wght' 700;fill:#000000;fill-opacity:1;stroke:#000000;stroke-width:0;stroke-linecap:square"
       x="13.096207"
       y="6.9222808"
       id="text3302"><tspan
         sodipodi:role="line"
         id="tspan3300"
         style="stroke-width:0"
         x="13.096207"
         y="6.9222808" /></text></g></svg>
