<?xml version="1.0" encoding="UTF-8" standalone="no"?>
<!-- Created with Inkscape (http://www.inkscape.org/) -->

<svg
   width="48"
   height="48"
   viewBox="0 0 12.7 12.7"
   version="1.1"
   id="svg5"
   inkscape:version="1.2.1 (9c6d41e410, 2022-07-14)"
   sodipodi:docname="Logo_Initial_White_noBG.svg"
   xmlns:inkscape="http://www.inkscape.org/namespaces/inkscape"
   xmlns:sodipodi="http://sodipodi.sourceforge.net/DTD/sodipodi-0.dtd"
   xmlns="http://www.w3.org/2000/svg"
   xmlns:svg="http://www.w3.org/2000/svg">
  <sodipodi:namedview
     id="namedview7"
     pagecolor="#ffffff"
     bordercolor="#cccccc"
     borderopacity="1"
     inkscape:showpageshadow="0"
     inkscape:pageopacity="1"
     inkscape:pagecheckerboard="0"
     inkscape:deskcolor="#d1d1d1"
     inkscape:document-units="px"
     showgrid="false"
     inkscape:zoom="6.1433222"
     inkscape:cx="78.866122"
     inkscape:cy="36.787913"
     inkscape:window-width="1920"
     inkscape:window-height="1017"
     inkscape:window-x="1912"
     inkscape:window-y="117"
     inkscape:window-maximized="1"
     inkscape:current-layer="layer1" />
  <defs
     id="defs2" />
  <g
     inkscape:label="Layer 1"
     inkscape:groupmode="layer"
     id="layer1">
    <g
       aria-label="KJ"
       id="text236"
       style="font-weight:bold;font-size:14.1111px;font-family:MuseoModerno;-inkscape-font-specification:'MuseoModerno, Bold';stroke:#000000;stroke-width:0;stroke-linecap:square;fill:#fafafa;fill-opacity:1"
       transform="matrix(0.8372658,0,0,0.8372658,-0.15401516,-0.29895399)">
      <path
         d="M 0.86077711,11.33122 V 1.4534495 H 3.2314419 v 3.9934414 h 1.6368877 q 0.4092219,0 0.7478883,-0.1693332 Q 5.9689954,5.1082245 6.1665508,4.7695581 6.3641062,4.4308917 6.3641062,3.9793365 V 1.4534495 H 8.734771 v 2.5399981 q 0,0.9454437 -0.4515552,1.693332 -0.4515552,0.7478883 -1.1853324,1.1994435 l 1.0724436,2.257776 q 0.042333,0.1128888 0.141111,0.1693332 0.1128888,0.056444 0.2398887,0.056444 H 9.440326 V 11.33122 H 8.0715493 q -0.7761105,0 -1.2558879,-0.296333 Q 6.335884,10.738553 6.0818842,10.216443 L 4.7413297,7.4224449 q -0.1128888,0 -0.2116665,0 -0.098778,0 -0.2116665,0 H 3.2314419 V 11.33122 Z"
         id="path235"
         style="fill:#fafafa;fill-opacity:1" />
      <path
         d="m 12.064991,14.421551 q -0.860777,0 -1.453443,-0.324556 -0.578556,-0.324555 -0.8748887,-0.888999 -0.2963331,-0.564444 -0.2963331,-1.28411 0,-0.719666 0.282222,-1.523999 Q 10.00477,9.5814432 10.653881,8.7912216 11.317103,8.001 12.431879,7.3236672 V 3.4290036 H 10.470437 V 1.4534495 h 4.205107 v 9.9906585 q 0,0.889 -0.282222,1.552221 -0.282222,0.677333 -0.860777,1.044222 -0.578555,0.381 -1.467554,0.381 z m -0.127,-2.031999 q 0.169333,0 0.296333,-0.09878 0.127,-0.09878 0.183444,-0.282222 0.07056,-0.169333 0.07056,-0.409221 V 9.4403322 q -0.550333,0.4515553 -0.790222,0.8889998 -0.225777,0.423333 -0.282222,0.761999 -0.04233,0.338666 -0.04233,0.536222 0,0.366888 0.169333,0.564444 0.169333,0.197555 0.395111,0.197555 z"
         id="path237"
         style="fill:#fafafa;fill-opacity:1" />
    </g>
  </g>
</svg>
